<svg width="44" height="41" viewBox="0 0 44 41" fill="none" xmlns="http://www.w3.org/2000/svg">
<path fill-rule="evenodd" clip-rule="evenodd" d="M5.03572 4.1097L0 1.82073L0.827606 0L5.86333 2.28896C6.44663 2.5541 6.86758 3.08265 6.99548 3.71049L7.73064 7.31946H41.1808C42.4515 7.31946 43.4001 8.48897 43.1378 9.73229L40.0597 24.3232C39.8645 25.2483 39.0482 25.9104 38.1028 25.9104H11.5177L12.2306 29.4104L37.4138 29.4104V31.4104H12.2306C11.2799 31.4104 10.4606 30.7411 10.2709 29.8096L5.03572 4.1097ZM11.1103 23.9104H38.1028L41.1808 9.31946H8.13804L11.1103 23.9104ZM32.9138 14.9104H16.4138V12.9104H32.9138V14.9104ZM31.9138 20.4104H17.9138V18.4104H31.9138V20.4104Z" fill="#546076"/>
<path fill-rule="evenodd" clip-rule="evenodd" d="M17.4138 34.966C16.3399 34.966 15.4694 35.8365 15.4694 36.9104C15.4694 37.9843 16.3399 38.8548 17.4138 38.8548C18.4877 38.8548 19.3583 37.9843 19.3583 36.9104C19.3583 35.8365 18.4877 34.966 17.4138 34.966ZM13.9138 36.9104C13.9138 34.9774 15.4808 33.4104 17.4138 33.4104C19.3468 33.4104 20.9138 34.9774 20.9138 36.9104C20.9138 38.8434 19.3468 40.4104 17.4138 40.4104C15.4808 40.4104 13.9138 38.8434 13.9138 36.9104Z" fill="#546076"/>
<path fill-rule="evenodd" clip-rule="evenodd" d="M31.4138 34.966C30.3399 34.966 29.4694 35.8365 29.4694 36.9104C29.4694 37.9843 30.3399 38.8548 31.4138 38.8548C32.4877 38.8548 33.3583 37.9843 33.3583 36.9104C33.3583 35.8365 32.4877 34.966 31.4138 34.966ZM27.9138 36.9104C27.9138 34.9774 29.4808 33.4104 31.4138 33.4104C33.3468 33.4104 34.9138 34.9774 34.9138 36.9104C34.9138 38.8434 33.3468 40.4104 31.4138 40.4104C29.4808 40.4104 27.9138 38.8434 27.9138 36.9104Z" fill="#546076"/>
</svg>
