<svg width="44" height="44" viewBox="0 0 44 44" fill="none" xmlns="http://www.w3.org/2000/svg">
<path fill-rule="evenodd" clip-rule="evenodd" d="M22 2C10.9543 2 2 10.9543 2 22C2 33.0457 10.9543 42 22 42C33.0457 42 42 33.0457 42 22C42 10.9543 33.0457 2 22 2ZM0 22C0 9.84974 9.84974 0 22 0C34.1503 0 44 9.84974 44 22C44 34.1503 34.1503 44 22 44C9.84974 44 0 34.1503 0 22Z" fill="#546076"/>
<path fill-rule="evenodd" clip-rule="evenodd" d="M23 11V14H28V16H19.75C18.2312 16 17 17.2312 17 18.75C17 20.2688 18.2312 21.5 19.75 21.5H24.5C26.9853 21.5 29 23.5147 29 26C29 28.4853 26.9853 30.5 24.5 30.5H23V33H21V30.5H16V28.5H24.5C25.8807 28.5 27 27.3807 27 26C27 24.6193 25.8807 23.5 24.5 23.5H19.75C17.1266 23.5 15 21.3734 15 18.75C15 16.1266 17.1266 14 19.75 14H21V11H23Z" fill="#546076"/>
</svg>
