<svg width="44" height="39" viewBox="0 0 44 39" fill="none" xmlns="http://www.w3.org/2000/svg">
<path fill-rule="evenodd" clip-rule="evenodd" d="M4.5 2C3.11929 2 2 3.11929 2 4.5C2 5.88071 3.11929 7 4.5 7C5.88071 7 7 5.88071 7 4.5C7 3.11929 5.88071 2 4.5 2ZM0 4.5C0 2.01472 2.01472 0 4.5 0C6.98528 0 9 2.01472 9 4.5C9 6.98528 6.98528 9 4.5 9C2.01472 9 0 6.98528 0 4.5Z" fill="white"/>
<path fill-rule="evenodd" clip-rule="evenodd" d="M4.5 17C3.11929 17 2 18.1193 2 19.5C2 20.8807 3.11929 22 4.5 22C5.88071 22 7 20.8807 7 19.5C7 18.1193 5.88071 17 4.5 17ZM0 19.5C0 17.0147 2.01472 15 4.5 15C6.98528 15 9 17.0147 9 19.5C9 21.9853 6.98528 24 4.5 24C2.01472 24 0 21.9853 0 19.5Z" fill="white"/>
<path fill-rule="evenodd" clip-rule="evenodd" d="M4.5 32C3.11929 32 2 33.1193 2 34.5C2 35.8807 3.11929 37 4.5 37C5.88071 37 7 35.8807 7 34.5C7 33.1193 5.88071 32 4.5 32ZM0 34.5C0 32.0147 2.01472 30 4.5 30C6.98528 30 9 32.0147 9 34.5C9 36.9853 6.98528 39 4.5 39C2.01472 39 0 36.9853 0 34.5Z" fill="white"/>
<path fill-rule="evenodd" clip-rule="evenodd" d="M44 5H15V3H44V5Z" fill="white"/>
<path fill-rule="evenodd" clip-rule="evenodd" d="M44 20H15V18H44V20Z" fill="white"/>
<path fill-rule="evenodd" clip-rule="evenodd" d="M44 35H15V33H44V35Z" fill="white"/>
</svg>
