<svg width="43" height="44" viewBox="0 0 43 44" fill="none" xmlns="http://www.w3.org/2000/svg">
<path fill-rule="evenodd" clip-rule="evenodd" d="M3.5 22.5556C2.42611 22.5556 1.55556 23.4261 1.55556 24.5C1.55556 25.5739 2.42611 26.4444 3.5 26.4444C4.57389 26.4444 5.44444 25.5739 5.44444 24.5C5.44444 23.4261 4.57389 22.5556 3.5 22.5556ZM0 24.5C0 22.567 1.567 21 3.5 21C5.433 21 7 22.567 7 24.5C7 26.433 5.433 28 3.5 28C1.567 28 0 26.433 0 24.5Z" fill="#546076"/>
<path fill-rule="evenodd" clip-rule="evenodd" d="M13.5 11.5556C12.4261 11.5556 11.5556 12.4261 11.5556 13.5C11.5556 14.5739 12.4261 15.4444 13.5 15.4444C14.5739 15.4444 15.4444 14.5739 15.4444 13.5C15.4444 12.4261 14.5739 11.5556 13.5 11.5556ZM10 13.5C10 11.567 11.567 10 13.5 10C15.433 10 17 11.567 17 13.5C17 15.433 15.433 17 13.5 17C11.567 17 10 15.433 10 13.5Z" fill="#546076"/>
<path fill-rule="evenodd" clip-rule="evenodd" d="M21.5 19.5556C20.4261 19.5556 19.5556 20.4261 19.5556 21.5C19.5556 22.5739 20.4261 23.4444 21.5 23.4444C22.5739 23.4444 23.4444 22.5739 23.4444 21.5C23.4444 20.4261 22.5739 19.5556 21.5 19.5556ZM18 21.5C18 19.567 19.567 18 21.5 18C23.433 18 25 19.567 25 21.5C25 23.433 23.433 25 21.5 25C19.567 25 18 23.433 18 21.5Z" fill="#546076"/>
<path fill-rule="evenodd" clip-rule="evenodd" d="M39.5 1.55556C38.4261 1.55556 37.5556 2.42611 37.5556 3.5C37.5556 4.57389 38.4261 5.44444 39.5 5.44444C40.5739 5.44444 41.4444 4.57389 41.4444 3.5C41.4444 2.42611 40.5739 1.55556 39.5 1.55556ZM36 3.5C36 1.567 37.567 0 39.5 0C41.433 0 43 1.567 43 3.5C43 5.433 41.433 7 39.5 7C37.567 7 36 5.433 36 3.5Z" fill="#546076"/>
<path fill-rule="evenodd" clip-rule="evenodd" d="M3 43L3 32H4L4 43H3Z" fill="#546076"/>
<path fill-rule="evenodd" clip-rule="evenodd" d="M13 43L13 24H14L14 43H13Z" fill="#546076"/>
<path fill-rule="evenodd" clip-rule="evenodd" d="M21 43V29H22V43H21Z" fill="#546076"/>
<path fill-rule="evenodd" clip-rule="evenodd" d="M39 43V16H40V43H39Z" fill="#546076"/>
<path fill-rule="evenodd" clip-rule="evenodd" d="M43 44H0V42H43V44Z" fill="#546076"/>
<path fill-rule="evenodd" clip-rule="evenodd" d="M12 16.0001L5.00001 23.0001L4.29291 22.293L11.2929 15.293L12 16.0001Z" fill="#546076"/>
<path fill-rule="evenodd" clip-rule="evenodd" d="M20 20.0001L15 15.0001L15.7071 14.293L20.7071 19.293L20 20.0001Z" fill="#546076"/>
<path fill-rule="evenodd" clip-rule="evenodd" d="M38 6.00008L24 20.0001L23.2929 19.293L37.2929 5.29297L38 6.00008Z" fill="#546076"/>
</svg>
