<svg width="44" height="44" viewBox="0 0 44 44" fill="none" xmlns="http://www.w3.org/2000/svg">
<path fill-rule="evenodd" clip-rule="evenodd" d="M22 15C18.134 15 15 18.134 15 22C15 25.866 18.134 29 22 29C25.866 29 29 25.866 29 22C29 18.134 25.866 15 22 15ZM13 22C13 17.0294 17.0294 13 22 13C26.9706 13 31 17.0294 31 22C31 26.9706 26.9706 31 22 31C17.0294 31 13 26.9706 13 22Z" fill="white"/>
<path fill-rule="evenodd" clip-rule="evenodd" d="M18.1989 0H25.8011L26.8427 4.65918C28.3062 5.06706 29.6943 5.65508 30.9816 6.39764L35.1786 3.69572L40.3832 9.55089L37.3119 12.5326C38.2533 14.0523 38.9752 15.7229 39.4327 17.5L44 17.5V26.5H39.4327C39.0235 28.0896 38.4027 29.5942 37.6024 30.9816L40.2774 35.1368L35.1368 40.2774L30.9816 37.6024C29.4495 38.4861 27.7746 39.151 26 39.5537V44H18V39.5537C16.2403 39.1544 14.5786 38.4973 13.0569 37.6245L9.44063 40.2852L3.69572 35.1786L6.39764 30.9816C5.5696 29.5461 4.93374 27.9852 4.52555 26.3344L0 25.2966V18.7034L4.52555 17.6656C4.93419 16.0129 5.57101 14.4505 6.40039 13.0136L4.10586 9.38704L9.37075 3.6634L13.0569 6.37549C14.3334 5.64338 15.7084 5.06299 17.1573 4.65918L18.1989 0ZM19.8011 2L18.84 6.29935L18.2344 6.44539C16.5465 6.85247 14.9626 7.52736 13.5301 8.42301L12.9544 8.78302L9.62925 6.3366L6.61549 9.61296L8.75645 12.9968L8.42301 13.5301C7.44466 15.0949 6.72968 16.8403 6.33947 18.7048L6.2083 19.3316L2 20.2966V23.7034L6.2083 24.6684L6.33947 25.2952C6.72968 27.1597 7.44466 28.9051 8.42301 30.4699L8.75937 31.0078L6.30428 34.8214L9.55937 37.7148L12.9544 35.217L13.5301 35.577C15.2257 36.6371 17.1335 37.3881 19.1753 37.7516L20 37.8985V42H24V37.8985L24.8247 37.7516C26.8665 37.3881 28.7743 36.6371 30.4699 35.577L31.0078 35.2406L34.8632 37.7226L37.7226 34.8632L35.2406 31.0078L35.577 30.4699C36.5553 28.9051 37.2703 27.1597 37.6605 25.2952L37.8269 24.5H42V19.5L37.8269 19.5L37.6605 18.7048C37.2307 16.6512 36.4069 14.742 35.2711 13.0595L34.9005 12.5105L35.6477 11.3608L37.6168 9.44911L34.8214 6.30428L31.0078 8.75937L30.4699 8.42301C29.0374 7.52736 27.4535 6.85247 25.7656 6.44539L25.16 6.29935L24.1989 2H19.8011Z" fill="white"/>
</svg>
